<svg width="555" height="80" viewBox="0 0 555 80" fill="none" xmlns="http://www.w3.org/2000/svg">
<path fill-rule="evenodd" clip-rule="evenodd" d="M211.055 4.58835L211.052 4.59331L211.051 4.59539C210.529 5.29841 209.89 5.96342 209.305 6.43354C209.146 6.55634 208.99 6.66725 208.841 6.76859C208.359 7.07369 207.749 7.37551 207.499 7.70247C207.505 7.71623 207.51 7.73093 207.516 7.74481C207.683 8.22105 208.181 8.52551 208.621 8.91708C208.734 9.02519 208.838 9.13393 208.925 9.2424C209.994 10.5768 210.425 12.279 209.755 13.6024C209.189 14.611 208.077 15.2833 206.91 15.4527C205.512 15.6246 204.192 15.0021 203.551 13.9832C203.148 13.3443 202.957 12.426 203.238 11.6926C203.515 11.0924 204.178 10.6122 205.438 10.475C205.435 10.4475 205.431 10.4209 205.428 10.394L205.426 10.3864C205.21 8.56037 203.461 8.46218 201.695 8.64767C201.571 8.65624 201.439 8.65875 201.295 8.65181C200.687 7.95113 200.703 7.4666 199.797 6.68492L199.74 6.637C199.217 6.1274 198.534 5.70491 197.439 5.41696L197.396 5.40607C196.813 5.23842 196.23 5.17031 195.719 5.25615L195.613 5.28916C194.534 5.495 195.64 6.14856 196.128 6.63203C196.415 6.91555 196.679 7.21172 196.924 7.51886C196.99 7.60463 197.056 7.69472 197.126 7.79157C197.394 8.16717 197.669 8.58037 197.918 9.0113C198.18 9.4834 198.408 9.97201 198.605 10.4729C199.962 14.2747 200.695 18.475 201.628 19.9625L224.427 20.0021C225.371 18.5158 226.213 14.3064 227.58 10.4729C227.778 9.97201 228.006 9.4834 228.267 9.0113C228.516 8.58037 228.791 8.16717 229.06 7.79157C229.129 7.69472 229.195 7.60463 229.262 7.51886C229.506 7.21172 229.771 6.91555 230.057 6.63203C230.981 5.71798 231.525 5.58689 230.467 5.25615C229.956 5.17031 229.372 5.23842 228.789 5.40607L228.747 5.41696C227.652 5.70491 226.969 6.12675 226.447 6.63651L226.389 6.68492C225.483 7.4666 225.499 7.95095 224.89 8.65146C224.746 8.65875 224.613 8.65623 224.488 8.64731C222.737 8.46217 220.978 8.54813 220.759 10.3859L220.758 10.394C220.755 10.4208 220.751 10.4473 220.747 10.475C222.006 10.6122 222.669 11.0912 222.947 11.6902C223.684 13.6024 221.703 15.7487 219.278 15.4534C218.112 15.2846 216.998 14.6125 216.431 13.6037C215.76 12.2804 216.191 10.5775 217.26 9.2424C217.347 9.13393 217.452 9.02483 217.566 8.91626C218.005 8.52568 218.501 8.22134 218.669 7.74732C218.676 7.73192 218.681 7.71734 218.686 7.70247C218.436 7.37586 217.826 7.07421 217.345 6.76859C217.195 6.66672 217.038 6.55552 216.878 6.43219C216.295 5.96207 215.657 5.29958 215.137 4.59808C214.508 3.72928 213.767 1.70724 213.506 0.580402C213.441 -0.193348 212.744 -0.193346 212.68 0.579762C212.42 1.70158 211.68 3.7238 211.055 4.58835Z" fill="#1A1A1A"/>
<path fill-rule="evenodd" clip-rule="evenodd" d="M55.242 9.19582C57.5518 9.19582 59.4241 11.0681 59.4241 13.3779C59.4241 15.6878 57.5518 17.5601 55.242 17.5601C52.932 17.5601 51.0597 15.6878 51.0597 13.3779C51.0597 11.0681 52.932 9.19582 55.242 9.19582Z" fill="#1A1A1A"/>
<path fill-rule="evenodd" clip-rule="evenodd" d="M71.9707 9.19582C74.2806 9.19582 76.1529 11.0681 76.1529 13.3779C76.1529 15.6878 74.2806 17.5601 71.9707 17.5601C69.6608 17.5601 67.7885 15.6878 67.7885 13.3779C67.7885 11.0681 69.6608 9.19582 71.9707 9.19582Z" fill="#1A1A1A"/>
<path d="M26.2491 27.7998V78.8137H25.6554V79.7031H41.5232V78.8137H37.2231V26.3166H41.5232V25.4271H0V26.3166H4.3012V78.8137H0V79.7031H15.8677V78.8137H15.2752V27.1318C16.0661 27.0833 16.7456 26.9834 17.3139 26.835C17.882 26.6877 18.8087 26.6135 20.0947 26.6135C22.3189 26.6135 23.9008 26.7492 24.8402 27.0206C25.7794 27.2932 26.2491 27.5529 26.2491 27.7998ZM55.0182 42.8511C54.6226 41.6162 54.3257 40.4299 54.1276 39.2921C53.9304 38.1557 53.8319 37.0436 53.8319 35.9558C53.8319 29.6286 56.4515 26.465 61.6909 26.465C66.4363 26.465 69.5512 29.2818 71.0344 34.9179H82.0083C80.2283 28.491 74.148 25.2787 63.7678 25.2787C60.9001 25.2787 58.3545 25.7356 56.1303 26.6506C53.9061 27.5644 52.0401 28.8621 50.5314 30.5425C49.0239 32.2239 47.8873 34.2128 47.1209 36.5125C46.3554 38.811 45.9716 41.3691 45.9716 44.1861C45.9716 45.5706 46.0701 46.8556 46.2685 48.0419C46.4656 49.2283 46.8124 50.4019 47.3063 51.5639C47.8004 52.7257 48.4557 53.9249 49.2709 55.1599C50.0872 56.3961 51.1124 57.7554 52.3487 59.2385C53.3367 60.3749 54.523 61.6854 55.9076 63.1686C57.2923 64.6507 58.8983 66.258 60.7272 67.9881C62.556 69.7671 63.4709 71.967 63.4709 74.5867C63.4709 77.0591 62.433 78.3927 60.3561 78.5911C60.159 78.641 59.862 78.6652 59.4666 78.6652C58.9228 78.6652 58.4902 78.554 58.1691 78.3313C57.8477 78.1087 57.6877 77.8245 57.6877 77.4789C57.6877 77.232 57.8107 76.8736 58.0576 76.4039C58.3046 75.9342 58.4287 75.526 58.4287 75.1805C58.4287 74.6853 57.9834 74.4383 57.094 74.4383C55.7592 74.7849 54.523 75.1063 53.3866 75.4032C52.25 75.6989 51.2121 75.9714 50.2727 76.2184C49.7289 76.2184 49.2709 76.4039 48.9009 76.7738C48.5298 77.1448 48.3442 77.4546 48.3442 77.7015C48.3442 79.2335 51.3594 80 57.3908 80C60.1091 80 62.5688 79.7901 64.7687 79.3692C66.9686 78.9494 68.9574 78.2454 70.7375 77.2563C72.5164 76.2671 74.148 74.9578 75.6312 73.3262C77.1144 71.6957 78.5222 69.6685 79.8572 67.246C81.2904 64.5764 82.4409 61.6854 83.3047 58.5706C84.1699 55.4567 84.7266 52.0705 84.9736 48.413L74.4449 49.2283V52.6388C74.4449 56.0992 74.3579 59.1028 74.1852 61.6482C74.0123 64.1938 73.7282 66.3322 73.3328 68.0624C71.7997 74.6365 68.5619 78.1457 63.6194 78.5911C66.5848 76.9594 68.0679 74.5623 68.0679 71.3988C68.0679 67.9384 66.3376 63.3414 62.8772 57.6069C58.5772 50.5387 56.0561 45.9904 55.3139 43.9634C70.2922 43.4206 77.7812 42.2088 77.7812 40.33C77.7812 39.3909 77.1017 38.6625 75.7426 38.143C74.3823 37.6247 72.7633 37.2164 70.8859 36.9195L70.9601 37.2164C70.9601 38.3528 69.4027 39.4406 66.2879 40.4785C64.706 41.0225 62.9886 41.4921 61.1354 41.8874C59.2812 42.283 57.2424 42.6042 55.0182 42.8511ZM108.108 26.3166V78.8137H91.9431V79.7031H135.098V78.8137H118.933V26.3166H125.014V38.1058C125.014 38.5999 125.569 39.2679 126.682 40.1086C127.794 40.9483 129.067 41.7646 130.5 42.5554C131.934 43.3464 133.318 44.0259 134.653 44.5942C135.987 45.1625 136.877 45.4466 137.322 45.4466C136.481 44.31 135.9 43.2224 135.579 42.1843C135.258 41.1465 135.098 39.7874 135.098 38.1058V25.4271H91.9431V38.1058C91.9431 39.7874 91.7461 41.1337 91.3505 42.1473C90.9551 43.1609 90.3115 44.1616 89.422 45.1497C89.7688 45.1497 90.3244 45.0268 91.0908 44.7798C91.8573 44.5327 92.7098 44.2115 93.6491 43.8161C94.5884 43.4206 95.552 42.9626 96.5401 42.4442C97.5293 41.9246 98.4314 41.4063 99.2467 40.8867C100.062 40.3672 100.73 39.8604 101.248 39.3664C101.768 38.8724 102.028 38.4526 102.028 38.1058V26.3166H108.108ZM158.676 69.9155C158.676 68.5321 161.247 65.3429 166.388 60.3506C168.365 58.4233 170.268 56.5818 172.097 54.826C173.926 53.0713 175.545 51.3295 176.954 49.5993C178.363 47.8691 179.499 46.0774 180.364 44.2231C181.23 42.37 181.662 40.4043 181.662 38.3284C181.662 36.648 181.267 35.1649 180.476 33.88C179.685 32.5939 178.635 31.4702 177.325 30.5053C176.014 29.5417 174.495 28.7265 172.765 28.0585C171.035 27.3917 169.243 26.8477 167.389 26.428C165.536 26.0082 163.669 25.7113 161.791 25.5386C159.913 25.3645 158.182 25.2787 156.6 25.2787C154.772 25.2787 153.202 25.3402 151.892 25.4643C150.582 25.5871 149.507 25.8969 148.666 26.3908C147.826 26.8849 147.208 27.5901 146.813 28.5038C146.417 29.4187 146.22 30.691 146.22 32.3226V78.8137H141.771V79.7031H169.947V78.8137H157.046V71.6215C158.776 72.5607 160.852 73.0293 163.273 73.0293C164.708 73.0293 165.869 72.9562 166.759 72.8078C167.649 72.6594 168.328 72.4738 168.798 72.2511C169.268 72.0285 169.576 71.757 169.724 71.4359C169.873 71.1147 169.947 70.8049 169.947 70.5092C169.947 69.9654 169.687 69.4958 169.169 69.1003C168.649 68.7048 168.031 68.3837 167.315 68.1366C166.598 67.8885 165.881 67.704 165.165 67.58C164.448 67.4559 163.917 67.3944 163.57 67.3944C162.681 67.3944 162.235 67.667 162.235 68.2097C162.235 68.3095 162.285 68.4822 162.384 68.7292C162.482 68.9763 162.582 69.2487 162.681 69.5444C162.779 69.8412 162.878 70.1139 162.978 70.3608C163.076 70.6079 163.126 70.8049 163.126 70.9534C163.126 71.3988 162.779 71.6215 162.087 71.6215C161.84 71.6215 161.531 71.5959 161.16 71.5473C160.79 71.4974 160.419 71.4104 160.048 71.2874C159.677 71.1633 159.356 71.0033 159.085 70.8049C158.812 70.6079 158.676 70.3608 158.676 70.0639V69.9155ZM163.719 27.6513C167.871 29.4305 169.947 33.4845 169.947 39.8117C169.947 46.9795 167.92 53.4054 163.867 59.0901C161.741 62.0066 160.098 64.3922 158.936 66.2453C157.774 68.0996 157.144 69.4459 157.046 70.2866V28.615C157.046 27.379 157.984 26.7619 159.863 26.7619C161.099 26.7619 162.384 27.0576 163.719 27.6513Z" fill="#1A1A1A"/>
<path d="M222.789 79.7031V78.8137H218.488V26.3166H222.789V25.4271H202.62V26.3166H207.514V78.8137H202.62V79.7031H222.789Z" fill="#1A1A1A"/>
<path d="M259.109 41.0797C260.42 41.4683 261.975 41.7602 263.772 41.9542C265.569 42.1491 267.608 42.246 269.892 42.246V78.2539H269.308V79.1282H284.9V78.2539H280.675V26.6475H284.9V25.7729H269.308V26.6475H269.892V40.9337C264.985 40.5451 261.391 39.3549 259.109 37.3621V26.6475H259.691V25.7729H244.1V26.6475H248.326V78.2539H244.1V79.1282H259.691V78.2539H259.109V41.0797ZM315.207 78.2539H314.625V79.1282H330.216V78.2539H325.846V26.6475H330.216V25.7729H302.604C302.555 25.8208 302.531 25.9188 302.531 26.0635C302.531 26.3554 302.664 26.7806 302.932 27.3393C303.199 27.8991 303.587 28.4575 304.097 29.0162C304.607 29.5748 305.227 30.0491 305.955 30.4378C306.684 30.8265 307.485 31.0203 308.359 31.0203C308.505 31.0203 308.627 30.9725 308.724 30.8744C308.627 30.8265 308.578 30.7047 308.578 30.5109C308.578 30.0239 309.076 29.3559 310.072 28.5056C311.068 27.6552 312.537 27.0852 314.479 26.7933H315.207V31.7498C315.207 36.7547 311.759 41.9301 304.862 47.2755C296.217 53.9321 291.894 61.464 291.894 69.8715C291.894 71.2314 292.003 72.6164 292.222 74.0256C292.441 75.4347 292.817 76.8448 293.351 78.2539H289.271V79.1282H306.611V78.2539H306.028C304.862 76.1642 303.988 73.7828 303.405 71.1106C303.988 68.8751 307.923 67.1982 315.207 66.0809V78.2539ZM315.207 64.8417C312.44 64.9876 310.01 65.1701 307.923 65.3878C305.834 65.6065 304.085 65.8859 302.677 66.2267C302.58 65.7412 302.531 65.2794 302.531 64.8417C302.531 64.4039 302.531 63.9424 302.531 63.4566C302.531 57.0419 304.134 52.0373 307.339 48.4416C311.566 43.8739 314.188 40.6669 315.207 38.8203V64.8417ZM346.755 78.1809C345.735 78.1809 345.224 77.8649 345.224 77.2334L345.808 74.7551C345.808 74.2205 345.322 73.9525 344.351 73.9525C341.68 74.5842 339.396 75.1917 337.502 75.7756C336.434 76.0674 335.899 76.5289 335.899 77.1606C335.899 78.6664 338.862 79.42 344.788 79.42C347.459 79.42 349.839 79.2138 351.928 78.7999C354.017 78.3871 355.934 77.7065 357.684 76.7592C359.431 75.8119 361.071 74.5477 362.602 72.9688C364.131 71.3899 365.648 69.4097 367.155 67.0282C368.952 64.3071 370.263 61.6099 371.089 58.9378C371.914 56.2645 372.328 53.2275 372.328 49.8268L361.107 50.92V56.0946C361.107 69.6035 357.707 76.9417 350.908 78.108C353.725 76.3102 355.133 73.6368 355.133 70.0902C355.133 65.8621 353.239 60.9054 349.451 55.2203C345.177 48.7085 343.039 42.2938 343.039 35.977C343.039 29.7573 345.419 26.6475 350.179 26.6475C354.696 26.6475 357.902 30.0001 359.796 36.7065H370.725C370.287 35.0537 369.51 33.5352 368.393 32.1501C367.276 30.765 365.892 29.5873 364.24 28.615C362.589 27.6436 360.731 26.8775 358.667 26.3191C356.602 25.7604 354.405 25.4811 352.074 25.4811C349.159 25.4811 346.609 25.9304 344.423 26.8297C342.238 27.728 340.416 28.9924 338.96 30.6203C337.502 32.2482 336.409 34.2157 335.68 36.5243C334.952 38.8316 334.587 41.3955 334.587 44.2135C334.587 46.7409 335.062 49.1578 336.008 51.4662C336.955 53.7746 338.571 56.2895 340.854 59.0106C341.436 59.739 342.311 60.626 343.477 61.6715C344.642 62.7157 345.808 63.8693 346.974 65.1335C348.139 66.3967 349.159 67.7215 350.033 69.1054C350.908 70.4904 351.345 71.8881 351.345 73.2972C351.345 74.8029 350.98 75.9693 350.252 76.7957C349.524 77.6222 348.528 78.084 347.265 78.1809H346.755ZM395.059 26.6475V78.2539H379.176V79.1282H421.579V78.2539H405.696V26.6475H411.671V38.2366C411.671 38.7222 412.216 39.3789 413.31 40.2054C414.403 41.0306 415.653 41.8332 417.061 42.6107C418.471 43.388 419.83 44.0564 421.142 44.6148C422.453 45.1734 423.327 45.4527 423.765 45.4527C422.939 44.3354 422.368 43.2662 422.052 42.246C421.737 41.2255 421.579 39.8895 421.579 38.2366V25.7729H379.176V38.2366C379.176 39.8895 378.982 41.2131 378.594 42.2094C378.205 43.2058 377.573 44.1895 376.699 45.1609C377.04 45.1609 377.586 45.04 378.339 44.7972C379.092 44.5544 379.929 44.2385 380.852 43.8498C381.775 43.4611 382.722 43.0109 383.693 42.5012C384.665 41.9905 385.552 41.4808 386.353 40.9702C387.154 40.4595 387.81 39.9614 388.319 39.4758C388.83 38.99 389.085 38.5775 389.085 38.2366V26.6475H395.059ZM442.707 67.6119C444.359 69.2638 445.185 71.3772 445.185 73.9525C445.185 75.4597 444.856 76.5289 444.201 77.1606C443.545 77.7921 442.634 78.108 441.469 78.108C440.157 78.108 439.502 77.6462 439.502 76.7227V75.1189C439.502 74.3414 439.016 73.9525 438.045 73.9525C437.607 73.9525 436.927 74.0256 436.005 74.1715C435.082 74.3174 434.159 74.5236 433.236 74.7916C432.313 75.0585 431.5 75.3742 430.795 75.739C430.091 76.1037 429.739 76.5039 429.739 76.9417C429.739 77.5241 430.067 77.9859 430.723 78.3267C431.378 78.6664 432.155 78.9333 433.054 79.1282C433.953 79.3231 434.876 79.4441 435.823 79.4931C436.77 79.541 437.559 79.5659 438.191 79.5659C443.581 79.5659 448.074 78.8364 451.668 77.3782C455.263 75.9215 458.129 73.9412 460.265 71.4378C462.403 68.9354 463.921 65.9714 464.819 62.5458C465.718 59.1201 466.167 55.439 466.167 51.5027C466.167 47.9549 465.815 44.6148 465.111 41.4808C464.406 38.346 463.241 35.5883 461.614 33.2068C459.986 30.8265 457.861 28.9433 455.238 27.5583C452.616 26.1731 449.41 25.4811 445.622 25.4811C442.804 25.4811 440.316 25.9429 438.154 26.8662C435.992 27.7895 434.171 29.0768 432.689 30.7296C431.208 32.3816 430.079 34.3616 429.302 36.6703C428.525 38.9775 428.136 41.4924 428.136 44.2135C428.136 46.7888 428.597 49.1941 429.52 51.4296C430.443 53.6652 432.071 56.1926 434.402 59.0106C435.373 60.128 436.538 61.4162 437.899 62.8741C439.259 64.3311 440.861 65.9112 442.707 67.6119ZM441.979 26.7933C442.368 26.7443 442.658 26.7203 442.853 26.7203C443.096 26.7203 443.339 26.7203 443.581 26.7203C445.378 26.7203 447.005 27.2186 448.463 28.2147C449.92 29.2099 451.171 30.6931 452.215 32.6609C453.259 34.6285 454.072 37.1069 454.656 40.0958C455.238 43.0838 455.53 46.546 455.53 50.4823C455.53 58.9868 454.716 65.5587 453.089 70.1986C451.462 74.8395 448.585 77.4763 444.457 78.108C447.273 76.3102 448.682 73.6368 448.682 70.0902C448.682 65.8621 446.788 60.9054 442.999 55.2203C438.725 48.7085 436.587 42.2938 436.587 35.977C436.587 30.4857 438.384 27.4248 441.979 26.7933ZM493.123 78.2539H492.541V79.1282H508.861V78.2539H503.906V32.0407C503.906 30.5347 503.687 29.3446 503.251 28.4691C502.813 27.5945 502.17 26.9265 501.32 26.465C500.47 26.0033 499.402 25.7001 498.114 25.5542C496.826 25.4083 495.309 25.3352 493.561 25.3352C491.715 25.3352 489.772 25.4083 487.732 25.5542C485.692 25.7001 483.81 26.0635 482.086 26.6475C480.361 27.2299 478.929 28.1054 477.787 29.2717C476.645 30.4378 476.076 32.0657 476.076 34.1554C476.076 36.7785 476.864 38.7222 478.444 39.9864C480.022 41.2496 482.001 41.8811 484.381 41.8811C485.498 41.8811 486.591 41.7967 487.66 41.6259C488.728 41.4559 489.821 41.1766 490.938 40.7878C490.064 41.7602 489.008 42.7681 487.769 43.8133C486.53 44.8576 485.133 45.9874 483.579 47.2025C474.885 53.859 470.538 61.4162 470.538 69.8715C470.538 72.8354 471.121 75.9215 472.287 79.1282H485.255V78.2539H484.672C482.34 73.7349 481.175 68.7529 481.175 63.3107C481.175 56.8972 482.827 51.9405 486.129 48.4416C489.821 44.4085 492.152 41.4684 493.123 39.6217V78.2539ZM493.123 35.2486C493.123 36.8034 492.905 37.9082 492.468 38.5648C492.031 39.2203 491.181 39.5487 489.918 39.5487C489.141 39.5487 488.34 39.4027 487.514 39.1109C486.688 38.8203 485.923 38.395 485.219 37.8364C484.515 37.2767 483.931 36.5972 483.47 35.7946C483.008 34.9933 482.778 34.0573 482.778 32.989C482.778 32.0167 482.984 31.1424 483.397 30.3648C483.81 29.5873 484.356 28.9309 485.037 28.396C485.717 27.8626 486.505 27.4487 487.404 27.1568C488.303 26.8662 489.238 26.7203 490.21 26.7203C492.007 26.7203 492.978 27.3027 493.123 28.4691V35.2486ZM529.989 78.2539C527.657 73.7349 526.492 68.7529 526.492 63.3107C526.492 56.9941 528.095 52.0373 531.3 48.4416C535.526 43.8739 538.148 40.6669 539.168 38.8203V78.2539H538.586V79.1282H554.177V78.2539H549.806V26.6475H554.177V25.7729H526.492C526.492 26.0635 526.625 26.5015 526.893 27.0852C527.159 27.6676 527.548 28.2513 528.058 28.8337C528.568 29.4176 529.188 29.927 529.916 30.3648C530.645 30.8016 531.446 31.0203 532.32 31.0203C532.417 31.0203 532.563 30.9725 532.758 30.8744C532.661 30.8265 532.612 30.7047 532.612 30.5109C532.612 30.2188 532.782 29.8792 533.122 29.4904C533.462 29.1018 533.923 28.7244 534.506 28.3598C535.089 27.996 535.781 27.6552 536.583 27.3393C537.384 27.0237 538.221 26.7933 539.096 26.6475H539.168V31.7498C539.168 36.8034 535.72 41.978 528.823 47.2755C520.178 53.9321 515.855 61.464 515.855 69.8715C515.855 71.2314 515.964 72.6164 516.183 74.0256C516.402 75.4347 516.778 76.8448 517.312 78.2539H513.231V79.1282H530.572V78.2539H529.989Z" fill="#1A1A1A"/>
</svg>
