<svg width="135" height="40" viewBox="0 0 135 40" fill="none" xmlns="http://www.w3.org/2000/svg">
<path d="M20.9992 26.8764C24.107 26.485 26.6175 23.9916 27.014 20.9024C27.1524 19.848 27.0451 18.7762 26.7004 17.7695C26.3557 16.7629 25.7827 15.8483 25.0257 15.0965C24.2687 14.3446 23.348 13.7755 22.3344 13.4331C21.3209 13.0907 20.2417 12.9842 19.1802 13.1217C16.0699 13.5155 13.5594 16.009 13.1654 19.0957C13.027 20.15 13.1342 21.2219 13.479 22.2286C13.8237 23.2352 14.3967 24.1498 15.1537 24.9016C15.9107 25.6535 16.8314 26.2226 17.845 26.565C18.8585 26.9074 19.9377 27.0139 20.9992 26.8764ZM21.423 7.06646C24.415 7.3793 27.2082 8.70285 29.3356 10.8158C31.463 12.9288 32.7956 15.703 33.1105 18.6748C33.9309 26.8961 27.0313 33.7488 18.7514 32.9341C15.7598 32.6207 12.9672 31.2969 10.8403 29.184C8.71346 27.0711 7.38123 24.2971 7.06636 21.3258C6.24605 13.1045 13.1456 6.25171 21.423 7.06646ZM40.134 7.58091H59.2935C60.0221 7.58091 60.4335 8.40796 59.9949 8.98395L46.7386 26.3546H57.125C59.0184 26.3546 60.5079 28.0653 60.1163 30.0148C59.8288 31.4449 58.4782 32.4196 57.011 32.4196H36.2034C35.4823 32.4196 35.0733 31.6 35.507 31.0314L48.7732 13.646H40.248C38.7808 13.646 37.4302 12.6688 37.1427 11.2411C36.7487 9.29163 38.2406 7.58091 40.134 7.58091ZM123.283 7.64983C125.26 7.2363 127 8.72303 127 10.6134V31.5434C127 32.2744 126.15 32.6806 125.575 32.2276L109.047 19.204V29.392C109.047 31.2824 107.308 32.7692 105.33 32.3556C103.912 32.0603 102.941 30.7483 102.941 29.3108V8.45473C102.941 7.72367 103.791 7.31753 104.366 7.77044L120.896 20.7941V10.6947C120.896 9.25717 121.87 7.94767 123.285 7.64983H123.283ZM80.2473 7C90.3661 7 98.5692 12.8189 98.5692 19.9966C98.5692 27.1742 90.3661 32.9932 80.2473 32.9932C70.1285 32.9932 61.9255 27.1742 61.9255 19.9966C61.9255 12.8189 70.1285 7 80.2473 7ZM80.2473 13.0651C73.2561 13.0651 68.0319 16.7253 68.0319 19.9966C68.0319 23.2679 73.2561 26.9281 80.2473 26.9281C87.2386 26.9281 92.4628 23.2703 92.4628 19.9966C92.4628 16.7228 87.2386 13.0651 80.2473 13.0651Z" fill="#005BFF"/>
</svg>
