<svg width="40" height="40" viewBox="0 0 40 40" fill="none" xmlns="http://www.w3.org/2000/svg">
<path d="M20 40C31.0457 40 40 31.0457 40 20C40 8.9543 31.0457 0 20 0C8.9543 0 0 8.9543 0 20C0 31.0457 8.9543 40 20 40Z" fill="url(#paint0_linear_4_44)"/>
<path fill-rule="evenodd" clip-rule="evenodd" d="M9.04249 19.7835C14.871 17.2523 18.7511 15.5704 20.6994 14.7544C26.2448 12.4396 27.4105 12.04 28.1599 12.0233C28.3264 12.0233 28.6928 12.0566 28.9426 12.2565C29.1424 12.423 29.1924 12.6395 29.2257 12.806C29.259 12.9725 29.2923 13.3222 29.259 13.5887C28.9592 16.7527 27.6603 24.4296 26.9942 27.96C26.7111 29.4588 26.1616 29.9584 25.6287 30.0083C24.463 30.1082 23.5804 29.2423 22.4646 28.5096C20.6994 27.3605 19.7169 26.6445 18.0017 25.5121C16.02 24.2132 17.3023 23.4971 18.4347 22.3314C18.7344 22.0316 23.8468 17.3689 23.9467 16.9525C23.9634 16.9026 23.9634 16.7027 23.8468 16.6028C23.7303 16.5029 23.5637 16.5362 23.4305 16.5695C23.2473 16.6028 20.4497 18.4679 15.0042 22.1482C14.2049 22.6978 13.4888 22.9642 12.8393 22.9475C12.1233 22.9309 10.7577 22.5479 9.72526 22.2148C8.4763 21.8152 7.47713 21.5987 7.56039 20.8993C7.61035 20.5329 8.10994 20.1665 9.04249 19.7835Z" fill="white"/>
<defs>
<linearGradient id="paint0_linear_4_44" x1="19.9833" y1="0" x2="19.9833" y2="39.6836" gradientUnits="userSpaceOnUse">
<stop stop-color="#2AABEE"/>
<stop offset="1" stop-color="#229ED9"/>
</linearGradient>
</defs>
</svg>
