<svg width="167" height="31" viewBox="0 0 167 31" fill="none" xmlns="http://www.w3.org/2000/svg">
<path d="M78.1 26H81.4L86 8.90002V26H89.7V3.40002H84.6L80 20L75.4 3.40002H70.2V26H73.4V8.90002L78.1 26ZM105.2 14.8C105.2 10.8 103.2 9.30002 99.1 9.30002C96.5 9.30002 94.5 10.1 93.3 10.8V14C94.3 13.2 96.6 12.4 98.6 12.4C100.5 12.4 101.3 13.1 101.3 14.8V15.7H100.7C94.8 15.7 92.1 17.7 92.1 21C92.1 24.3 94.1 26.2 97.1 26.2C99.4 26.2 100.4 25.5 101.1 24.7H101.3C101.3 25.1 101.5 25.7 101.6 26H105.4C105.3 24.7 105.2 23.3 105.2 22V14.8ZM101.3 22.1C100.8 22.8 99.9 23.4 98.5 23.4C96.9 23.4 96.1 22.4 96.1 21C96.1 19.1 97.4 18.4 100.8 18.4H101.4V22.1H101.3ZM111.9 9.60002H108.3V30.7H112.2V24.1C113.2 25.6 114.6 26.3 116.3 26.3C120.1 26.3 122.7 23.3 122.7 17.8C122.7 12.3 120.2 9.30002 116.5 9.30002C114.7 9.30002 113.2 10.1 112.1 11.7L111.9 9.60002ZM115.2 23.3C113.2 23.3 112.1 21.6 112.1 17.9C112.1 14.1 113.2 12.4 115.4 12.4C117.5 12.4 118.6 14.1 118.6 17.8C118.6 21.6 117.5 23.3 115.2 23.3ZM134.8 26H139.2L133 17.2L138.5 9.60002H134.6L129.1 17.2V9.60002H125.2V26H129.1V18L134.8 26ZM152.2 24.9V21.7C151 22.5 149 23.2 147.1 23.2C144.3 23.2 143.2 21.9 143 19.1H152.3V17C152.3 11.3 149.8 9.20002 145.9 9.20002C141.2 9.20002 138.9 12.8 138.9 17.8C138.9 23.5 141.7 26.3 146.6 26.3C149.3 26.3 151.1 25.7 152.2 24.9ZM145.9 12.4C147.8 12.4 148.4 14 148.4 16V16.3H143C143.1 13.7 144.1 12.4 145.9 12.4ZM166.2 12.7V9.60002H153.2V12.7H157.8V26H161.7V12.7H166.2Z" fill="black"/>
<path d="M47.1 30C55.4 30 62.1 23.3 62.1 15C62.1 6.7 55.4 0 47.1 0C38.8 0 32.1 6.7 32.1 15C32 23.3 38.8 30 47.1 30Z" fill="#FED42B"/>
<path d="M15 30C23.2843 30 30 23.2843 30 15C30 6.71573 23.2843 0 15 0C6.71573 0 0 6.71573 0 15C0 23.2843 6.71573 30 15 30Z" fill="#FC3F1D"/>
<path d="M17.2 8.4H15.7C13.1 8.4 11.8 9.7 11.8 11.7C11.8 13.9 12.7 15 14.6 16.3L16.1 17.4L11.8 24.1H8.30005L12.4 18C10 16.3 8.70005 14.7 8.70005 11.9C8.70005 8.4 11.1 6 15.7 6H20.3V24H17.3V8.4H17.2Z" fill="white"/>
<mask id="mask0_15_37" style="mask-type:luminance" maskUnits="userSpaceOnUse" x="32" y="0" width="31" height="30">
<path d="M47.1 30C55.4 30 62.1 23.3 62.1 15C62.1 6.7 55.4 0 47.1 0C38.8 0 32.1 6.7 32.1 15C32 23.3 38.8 30 47.1 30Z" fill="white"/>
</mask>
<g mask="url(#mask0_15_37)">
<path d="M39.7 8.19998L26.5 25.5L30 29.5L39.8 16.5L38.8 23.6L44.3 25.5L51 14.8C50.7 16.8 50.2 21.4 54.6 22.8C61.5 24.9 67.5 12.5 70.3 6.19998L66.3 4.09998C63.2 10.6 58.4 17.8 56.5 17.3C54.6 16.8 56.3 10.7 57.4 6.79998V6.69998L51.3 4.59998L44 16.5L45 9.99998L39.7 8.19998Z" fill="black"/>
</g>
</svg>
