<?xml version="1.0" standalone="no"?>
<!DOCTYPE svg PUBLIC "-//W3C//DTD SVG 20010904//EN"
 "http://www.w3.org/TR/2001/REC-SVG-20010904/DTD/svg10.dtd">
<svg version="1.0" xmlns="http://www.w3.org/2000/svg"
 width="512.000000pt" height="512.000000pt" viewBox="0 0 512.000000 512.000000"
 preserveAspectRatio="xMidYMid meet">
<metadata>
Created by potrace 1.14, written by Peter Selinger 2001-2017
</metadata>
<g transform="translate(0.000000,512.000000) scale(0.100000,-0.100000)"
fill="#000000" stroke="none">
<path d="M2310 4665 c-1096 -133 -1905 -1078 -1867 -2180 19 -544 233 -1040
617 -1425 334 -337 767 -548 1250 -611 133 -17 411 -14 545 6 463 69 859 263
1189 584 543 530 759 1291 577 2037 -117 478 -416 916 -827 1210 -425 304
-966 442 -1484 379z m485 -75 c799 -92 1476 -650 1719 -1419 156 -492 116
-1034 -109 -1499 -106 -219 -209 -365 -384 -545 -545 -561 -1364 -758 -2108
-509 -755 253 -1290 916 -1384 1716 -15 130 -6 441 16 566 45 246 135 492 254
692 285 478 735 815 1264 948 68 17 169 37 223 44 121 17 387 20 509 6z"/>
<path d="M2556 4278 c-25 -86 -43 -117 -97 -169 l-58 -56 30 -29 c36 -34 53
-91 39 -128 -11 -30 -65 -66 -98 -66 -37 0 -78 27 -92 59 -15 38 -8 57 30 79
16 9 30 20 30 24 0 20 -36 38 -75 38 -37 0 -46 4 -70 36 -30 40 -78 64 -125
64 -37 0 -38 -9 -4 -41 43 -40 71 -98 109 -229 21 -69 41 -133 46 -142 9 -17
36 -18 344 -18 183 0 336 4 339 8 3 5 23 68 45 141 41 138 71 199 115 240 34
32 33 41 -4 41 -47 0 -95 -24 -125 -64 -24 -32 -33 -36 -70 -36 -39 0 -75 -18
-75 -38 0 -4 14 -15 30 -24 38 -22 45 -41 30 -79 -14 -32 -55 -59 -92 -59 -33
0 -87 36 -98 66 -14 37 3 94 40 129 l30 29 -51 45 c-49 43 -99 124 -99 163 0
21 -19 34 -24 16z"/>
<path d="M2270 3470 c0 -18 6 -20 70 -20 l70 0 0 -1135 0 -1135 -70 0 c-63 0
-70 -2 -70 -20 0 -20 7 -20 295 -20 288 0 295 0 295 20 0 18 -7 20 -65 20
l-65 0 2 1133 3 1132 63 3 c53 3 63 6 60 20 -3 15 -30 17 -296 20 -287 2 -292
2 -292 -18z"/>
<path d="M920 3165 c0 -12 14 -15 65 -15 l65 0 -2 -767 -3 -768 -62 -3 c-35
-2 -63 -7 -63 -12 0 -6 93 -10 235 -10 150 0 235 4 235 10 0 6 -4 10 -10 10
-7 0 -10 260 -10 759 l0 760 55 6 c80 10 230 2 249 -14 14 -12 16 -90 16 -762
0 -493 -3 -749 -10 -749 -5 0 -10 -4 -10 -10 0 -6 85 -10 235 -10 150 0 235 4
235 10 0 6 -28 10 -65 10 l-65 0 0 770 0 770 65 0 c51 0 65 3 65 15 0 13 -74
15 -610 15 -536 0 -610 -2 -610 -15z"/>
<path d="M2990 3165 c0 -12 13 -15 60 -15 l60 0 0 -770 0 -770 -60 0 c-33 0
-60 -4 -60 -10 0 -6 83 -10 228 -10 l227 0 -3 566 c-3 632 -10 568 60 548 11
-4 73 -9 137 -13 l116 -6 3 -537 c1 -357 -1 -538 -8 -538 -5 0 -10 -4 -10 -10
0 -6 85 -10 235 -10 150 0 235 4 235 10 0 6 -28 10 -65 10 l-65 0 0 770 0 769
63 3 c35 2 61 7 60 13 -2 6 -90 11 -233 13 -200 2 -230 0 -230 -13 0 -8 5 -15
10 -15 6 0 10 -77 10 -211 l0 -212 -58 6 c-75 8 -180 41 -223 70 l-34 23 0
177 0 177 -227 0 c-196 0 -228 -2 -228 -15z"/>
</g>
</svg>
